<?xml version="1.0" encoding="UTF-8" standalone="no"?>
<svg
   height="16"
   viewBox="0 0 16 16"
   width="16"
   version="1.1"
   id="svg1"
   sodipodi:docname="icon.svg"
   xml:space="preserve"
   inkscape:version="1.3 (0e150ed6c4, 2023-07-21)"
   xmlns:inkscape="http://www.inkscape.org/namespaces/inkscape"
   xmlns:sodipodi="http://sodipodi.sourceforge.net/DTD/sodipodi-0.dtd"
   xmlns="http://www.w3.org/2000/svg"
   xmlns:svg="http://www.w3.org/2000/svg"><defs
     id="defs1" /><sodipodi:namedview
     id="namedview1"
     pagecolor="#ffffff"
     bordercolor="#000000"
     borderopacity="0.25"
     inkscape:showpageshadow="2"
     inkscape:pageopacity="0.0"
     inkscape:pagecheckerboard="0"
     inkscape:deskcolor="#d1d1d1"
     inkscape:zoom="18.141708"
     inkscape:cx="-10.3353"
     inkscape:cy="8.4611657"
     inkscape:window-width="1920"
     inkscape:window-height="1017"
     inkscape:window-x="-8"
     inkscape:window-y="-8"
     inkscape:window-maximized="1"
     inkscape:current-layer="svg1" /><path
     id="path1"
     style="fill:#8eef97;fill-opacity:1"
     d="M 6,3 C 5.7348055,3.0000566 5.4804613,3.1054195 5.2929688,3.2929688 l -4,4 c -0.3903816,0.3904995 -0.3903816,1.0235629 0,1.4140624 l 4,3.9999998 C 5.4804613,12.89458 5.7348055,12.999943 6,13 h 8 c 0.552284,0 1,-0.447716 1,-1 V 4 C 15,3.4477159 14.552284,3 14,3 Z M 3.7265625,5.6132812 H 5.1621094 L 6.5976562,7.4082031 8.0332031,5.6132812 H 9.46875 V 10.494141 H 8.0332031 V 7.6953125 L 6.5976562,9.4902344 5.1621094,7.6953125 V 10.494141 H 3.7265625 Z m 8.1835935,0 h 1.435547 V 8.0546875 H 14.78125 L 12.628906,10.566406 10.474609,8.0546875 h 1.435547 z"
     sodipodi:nodetypes="ccccccsssscccccccccccccccccccccc" /></svg>
